<svg width="24" height="24" viewBox="0 0 24 24" fill="none" xmlns="http://www.w3.org/2000/svg">
<g clip-path="url(#clip0_2323_196)">
<path fill-rule="evenodd" clip-rule="evenodd" d="M16.06 10.9399C16.3409 11.2212 16.4987 11.6024 16.4987 11.9999C16.4987 12.3974 16.3409 12.7787 16.06 13.0599L10.404 18.7179C10.1226 18.9992 9.74101 19.1571 9.34315 19.157C8.94529 19.1569 8.56377 18.9988 8.2825 18.7174C8.00124 18.436 7.84328 18.0544 7.84338 17.6566C7.84347 17.2587 8.00161 16.8772 8.283 16.5959L12.879 11.9999L8.283 7.40391C8.00963 7.12114 7.85826 6.7423 7.86149 6.34901C7.86472 5.95571 8.0223 5.57941 8.30028 5.30117C8.57826 5.02292 8.95441 4.86499 9.3477 4.86139C9.741 4.85779 10.12 5.0088 10.403 5.28191L16.061 10.9389L16.06 10.9399Z" fill="#6F4E37" fill-opacity="0.7" style="fill:#6F4E37;fill:color(display-p3 0.4353 0.3059 0.2157);fill-opacity:0.7;"/>
</g>
<defs>
<clipPath id="clip0_2323_196">
<rect width="24" height="24" fill="white" style="fill:white;fill-opacity:1;"/>
</clipPath>
</defs>
</svg>
