<svg width="77" height="100" viewBox="0 0 77 100" fill="none" xmlns="http://www.w3.org/2000/svg">
<path d="M73.5767 21.8765H3.42353C1.4128 21.8765 -0.165089 23.2184 0.0138492 24.7764L2.50668 46.4719C2.66455 47.8454 4.14366 48.8979 5.91636 48.8979H6.67124L12.1051 95.4108C12.3937 97.8829 15.1013 99.7777 18.3455 99.7777H58.6403C61.8844 99.7777 64.5918 97.8831 64.8807 95.4108L70.3142 48.8979H71.0839C72.8563 48.8979 74.3357 47.8454 74.4936 46.4719L76.9861 24.7764C77.1653 23.2182 75.5874 21.8765 73.5767 21.8765Z" fill="#FFEACF" style="fill:#FFEACF;fill:color(display-p3 1.0000 0.9176 0.8118);fill-opacity:1;"/>
<path d="M25.9386 95.4108L20.5048 48.8979H19.7499C17.9775 48.8979 16.4981 47.8454 16.3405 46.4719L13.8477 24.7764C13.6687 23.2184 15.2463 21.8765 17.2571 21.8765H3.42354C1.41281 21.8765 -0.165078 23.2184 0.0141338 24.7764L2.50696 46.4719C2.66483 47.8454 4.14395 48.8979 5.91637 48.8979H6.67125L12.1051 95.4108C12.3937 97.8829 15.1013 99.7777 18.3452 99.7777H32.1787C28.9349 99.7777 26.2273 97.8831 25.9386 95.4108Z" fill="#FFD59A" style="fill:#FFD59A;fill:color(display-p3 1.0000 0.8353 0.6039);fill-opacity:1;"/>
<path d="M17.8127 96.227C16.9221 96.227 16.1935 95.7379 16.1177 95.0896L10.4576 46.6392C10.3722 45.9076 9.58371 45.3474 8.63949 45.3474H7.47119C6.8761 45.3474 6.38744 44.9999 6.33463 44.5389L4.79149 31.1081C4.76796 30.9048 4.89218 30.766 4.96825 30.7013C5.04431 30.6366 5.21093 30.5281 5.4736 30.5281H70.4619C70.7246 30.5281 70.8912 30.6366 70.9673 30.7013C71.0433 30.766 71.1673 30.9048 71.144 31.1083L69.6009 44.5389C69.5481 44.9999 69.0594 45.3474 68.4643 45.3474H67.2812C66.337 45.3474 65.5485 45.9076 65.4631 46.6392L59.803 95.0896C59.7272 95.7379 58.9986 96.227 58.108 96.227H17.8127Z" fill="#BF6C0D" style="fill:#BF6C0D;fill:color(display-p3 0.7490 0.4235 0.0510);fill-opacity:1;"/>
<path d="M54.9583 95.0857C54.9016 95.0857 54.8442 95.0834 54.7864 95.0789C53.8846 95.0059 53.2299 94.378 53.3235 93.6765L56.7783 67.8546C56.8721 67.1531 57.6757 66.6442 58.5811 66.7166C59.4829 66.7896 60.1376 67.4175 60.0441 68.119L56.5892 93.9408C56.5014 94.5974 55.7889 95.0857 54.9583 95.0857Z" fill="#E58D23" style="fill:#E58D23;fill:color(display-p3 0.8980 0.5529 0.1373);fill-opacity:1;"/>
<path d="M59.1939 64.074C59.1372 64.074 59.0798 64.0719 59.022 64.0672C58.1202 63.9942 57.4655 63.3663 57.5591 62.6648L58.4015 56.367C58.4956 55.6657 59.2992 55.1542 60.2043 55.2289C61.1061 55.3019 61.7608 55.9298 61.6673 56.6313L60.8248 62.9291C60.7367 63.5858 60.0243 64.074 59.1939 64.074Z" fill="#E58D23" style="fill:#E58D23;fill:color(display-p3 0.8980 0.5529 0.1373);fill-opacity:1;"/>
<path d="M4.96818 30.7013C4.89239 30.766 4.76817 30.9046 4.79143 31.1081L6.33457 44.5389C6.38737 44.9999 6.87604 45.3474 7.47113 45.3474H8.63943C9.58364 45.3474 10.3722 45.9076 10.4575 46.6392L16.1176 95.0896C16.1934 95.7379 16.9218 96.227 17.8124 96.227H26.1311C26.0389 95.9633 25.9707 95.6913 25.9382 95.4108L20.5044 48.8979H19.7495C17.9771 48.8979 16.4977 47.8454 16.3401 46.4719L14.5083 30.5281H5.47326C5.2106 30.5281 5.04397 30.6366 4.96818 30.7013Z" fill="#A56021" style="fill:#A56021;fill:color(display-p3 0.6471 0.3765 0.1294);fill-opacity:1;"/>
<path d="M38.2882 39.9795L26.0032 45.5275C24.0429 46.4127 21.5314 45.8942 20.3935 44.3692L13.4001 34.998C12.2622 33.4729 12.9287 31.5193 14.8891 30.6341L27.1743 25.0861C29.1347 24.2009 31.6461 24.7194 32.784 26.2444L39.7774 35.6156C40.9151 37.1406 40.2486 39.0943 38.2882 39.9795Z" fill="#FFA730" style="fill:#FFA730;fill:color(display-p3 1.0000 0.6549 0.1882);fill-opacity:1;"/>
<path d="M28.6508 41.2906L20.9312 30.9464C19.9939 29.6902 20.5591 28.0733 22.1942 27.3347L14.2996 30.9C12.6645 31.6384 12.0992 33.2554 13.0366 34.5118L20.7561 44.8559C21.6935 46.1121 23.7792 46.532 25.414 45.7937L33.3086 42.2284C31.6738 42.9667 29.5881 42.5468 28.6508 41.2906Z" fill="#E58D23" style="fill:#E58D23;fill:color(display-p3 0.8980 0.5529 0.1373);fill-opacity:1;"/>
<path d="M30.8713 92.2456L20.4124 84.768C18.7434 83.5748 18.634 81.5552 20.1678 80.2571L29.7801 72.1209C31.314 70.8226 33.9102 70.7375 35.579 71.9307L46.0378 79.4082C47.7068 80.6014 47.8163 82.6211 46.2824 83.9192L36.6701 92.0553C35.1363 93.3535 32.54 93.4386 30.8713 92.2456Z" fill="#FFA730" style="fill:#FFA730;fill:color(display-p3 1.0000 0.6549 0.1882);fill-opacity:1;"/>
<path d="M26.4279 85.4523L36.9617 76.5361C38.2411 75.4532 40.4064 75.3823 41.7986 76.3773L35.0774 71.5722C33.6853 70.5769 31.52 70.648 30.2406 71.731L19.7068 80.6472C18.4274 81.7301 18.5188 83.4145 19.9109 84.4098L26.632 89.2149C25.2399 88.2199 25.1485 86.5352 26.4279 85.4523Z" fill="#E58D23" style="fill:#E58D23;fill:color(display-p3 0.8980 0.5529 0.1373);fill-opacity:1;"/>
<path d="M35.9804 30.5281L32.8066 26.2753C31.6558 24.7333 29.1162 24.2091 27.1339 25.1041L15.1234 30.5279H35.9804V30.5281Z" fill="#FFB74B" style="fill:#FFB74B;fill:color(display-p3 1.0000 0.7176 0.2941);fill-opacity:1;"/>
<path d="M22.1931 27.3352L15.1234 30.5278H20.6831C20.1318 29.351 20.7353 27.9942 22.1931 27.3352Z" fill="#FFA730" style="fill:#FFA730;fill:color(display-p3 1.0000 0.6549 0.1882);fill-opacity:1;"/>
<path d="M26.6125 54.2211C28.8087 54.2211 30.5891 52.8361 30.5891 51.1276C30.5891 49.4192 28.8087 48.0342 26.6125 48.0342C24.4163 48.0342 22.6359 49.4192 22.6359 51.1276C22.6359 52.8361 24.4163 54.2211 26.6125 54.2211Z" fill="#A56021" style="fill:#A56021;fill:color(display-p3 0.6471 0.3765 0.1294);fill-opacity:1;"/>
<path d="M38.5 89.0899C36.4589 89.0899 34.8044 87.8028 34.8044 86.215V2.87486C34.8044 1.28706 36.4589 0 38.5 0C40.5411 0 42.1956 1.28706 42.1956 2.87486V86.2152C42.1956 87.8028 40.5411 89.0899 38.5 89.0899Z" fill="#FF9079" style="fill:#FF9079;fill:color(display-p3 1.0000 0.5647 0.4745);fill-opacity:1;"/>
<path d="M38.6946 86.2152V2.87486C38.6946 1.843 39.3956 0.940976 40.4451 0.433773C39.8796 0.160483 39.2147 0 38.5 0C36.4589 0 34.8044 1.28706 34.8044 2.87486V86.2152C34.8044 87.803 36.4589 89.0901 38.5 89.0901C39.2147 89.0901 39.8796 88.9296 40.4451 88.6563C39.3956 88.1491 38.6946 87.2469 38.6946 86.2152Z" fill="#FF624B" style="fill:#FF624B;fill:color(display-p3 1.0000 0.3843 0.2941);fill-opacity:1;"/>
<path d="M46.8301 67.5593L32.8179 65.7438C30.582 65.4541 29.0714 63.8093 29.4438 62.0699L31.7777 51.1696C32.15 49.4303 34.2645 48.2552 36.5004 48.5449L50.5126 50.3604C52.7485 50.6501 54.2591 52.2949 53.8867 54.0343L51.5528 64.9346C51.1804 66.6739 49.066 67.849 46.8301 67.5593Z" fill="#FFA730" style="fill:#FFA730;fill:color(display-p3 1.0000 0.6549 0.1882);fill-opacity:1;"/>
<path d="M38.3365 63.7592L40.8939 51.8139C41.2044 50.3631 42.9681 49.383 44.833 49.6246L35.8286 48.458C33.9637 48.2164 32.2001 49.1965 31.8895 50.6473L29.3321 62.5926C29.0216 64.0434 30.2815 65.4153 32.1464 65.6569L41.1508 66.8235C39.2859 66.5819 38.026 65.21 38.3365 63.7592Z" fill="#E58D23" style="fill:#E58D23;fill:color(display-p3 0.8980 0.5529 0.1373);fill-opacity:1;"/>
</svg>
