<svg width="19" height="19" viewBox="0 0 19 19" fill="none" xmlns="http://www.w3.org/2000/svg">
<path d="M9.16663 0C6.40963 0 4.16663 2.243 4.16663 5C4.16663 7.757 6.40963 10 9.16663 10C11.9236 10 14.1666 7.757 14.1666 5C14.1666 2.243 11.9236 0 9.16663 0ZM9.16663 8C7.51263 8 6.16663 6.654 6.16663 5C6.16663 3.346 7.51263 2 9.16663 2C10.8206 2 12.1666 3.346 12.1666 5C12.1666 6.654 10.8206 8 9.16663 8ZM18.1666 19V18C18.1666 14.141 15.0256 11 11.1666 11H7.16663C3.30663 11 0.166626 14.141 0.166626 18V19H2.16663V18C2.16663 15.243 4.40963 13 7.16663 13H11.1666C13.9236 13 16.1666 15.243 16.1666 18V19H18.1666Z" fill="#6A6C6A" style="fill:#6A6C6A;fill:color(display-p3 0.4157 0.4235 0.4157);fill-opacity:1;"/>
</svg>
