<svg width="13" height="13" viewBox="0 0 13 13" fill="none" xmlns="http://www.w3.org/2000/svg">
<path d="M12.2075 3.08547L9.41438 0.292974C9.32152 0.200091 9.21127 0.126411 9.08993 0.0761423C8.96859 0.0258733 8.83853 0 8.70719 0C8.57585 0 8.4458 0.0258733 8.32446 0.0761423C8.20312 0.126411 8.09287 0.200091 8 0.292974L0.29313 7.99985C0.199867 8.09237 0.125926 8.20251 0.0756045 8.32386C0.025283 8.44521 -0.000414649 8.57535 5.05934e-06 8.70672V11.4998C5.05934e-06 11.7651 0.105362 12.0194 0.292898 12.207C0.480435 12.3945 0.734789 12.4998 1.00001 12.4998H3.79313C3.9245 12.5003 4.05464 12.4746 4.17599 12.4242C4.29735 12.3739 4.40748 12.3 4.50001 12.2067L9.72938 6.97797L9.94688 7.84672L7.64688 10.1461C7.55306 10.2398 7.50032 10.367 7.50026 10.4996C7.5002 10.6323 7.55283 10.7595 7.64657 10.8533C7.74031 10.9471 7.86747 10.9998 8.0001 10.9999C8.13272 11 8.25993 10.9473 8.35375 10.8536L10.8538 8.3536C10.9149 8.29256 10.9592 8.21673 10.9823 8.13348C11.0054 8.05023 11.0066 7.96242 10.9856 7.8786L10.5544 6.15297L12.2075 4.49985C12.3004 4.40699 12.3741 4.29674 12.4243 4.1754C12.4746 4.05406 12.5005 3.924 12.5005 3.79266C12.5005 3.66132 12.4746 3.53127 12.4243 3.40992C12.3741 3.28858 12.3004 3.17834 12.2075 3.08547ZM1.00001 9.70672L2.79313 11.4998H1.00001V9.70672ZM4.00001 11.293L1.20688 8.49985L6.50001 3.20672L9.29313 5.99985L4.00001 11.293ZM10 5.29297L7.20751 2.49985L8.70751 0.999849L11.5 3.79297L10 5.29297Z" fill="#6F4E37" fill-opacity="0.5" style="fill:#6F4E37;fill:color(display-p3 0.4353 0.3059 0.2157);fill-opacity:0.5;"/>
</svg>
