<svg width="21" height="20" viewBox="0 0 21 20" fill="none" xmlns="http://www.w3.org/2000/svg">
<path d="M5.01592 12.323L3.52593 18.775C3.43393 19.174 3.59393 19.589 3.93193 19.822C4.10293 19.94 4.30093 20 4.49993 20C4.69292 20 4.88692 19.944 5.05492 19.832L10.4999 16.202L15.9449 19.832C16.2929 20.064 16.7499 20.055 17.0899 19.808C17.4279 19.561 17.5769 19.128 17.4619 18.726L15.6329 12.326L20.1689 8.244C20.4659 7.976 20.5749 7.558 20.4469 7.18C20.3179 6.802 19.9769 6.536 19.5789 6.504L13.8779 6.05L11.4109 0.589C11.2499 0.23 10.8929 0 10.4999 0C10.1069 0 9.74993 0.23 9.58893 0.589L7.12192 6.05L1.42093 6.503C1.02893 6.534 0.691925 6.791 0.559925 7.16C0.425925 7.529 0.521925 7.942 0.801925 8.216L5.01592 12.323ZM7.86893 7.997C8.23193 7.968 8.55193 7.744 8.70093 7.411L10.4999 3.43L12.2989 7.411C12.4479 7.744 12.7679 7.968 13.1309 7.997L17.1029 8.312L13.8319 11.256C13.5479 11.512 13.4349 11.906 13.5389 12.274L14.7919 16.659L11.0559 14.168C10.7199 13.943 10.2829 13.943 9.94693 14.168L6.04293 16.771L7.09293 12.225C7.17093 11.885 7.06693 11.528 6.81693 11.285L3.77892 8.323L7.86893 7.997Z" fill="#6A6C6A" style="fill:#6A6C6A;fill:color(display-p3 0.4157 0.4235 0.4157);fill-opacity:1;"/>
</svg>
