<svg width="21" height="20" viewBox="0 0 21 20" fill="none" xmlns="http://www.w3.org/2000/svg">
<path d="M1.83332 11.9999H3.83332V18.9999C3.83332 19.5529 4.28132 19.9999 4.83332 19.9999H16.8333C17.3863 19.9999 17.8333 19.5529 17.8333 18.9999V11.9999H19.8333C20.2283 11.9999 20.5863 11.7679 20.7463 11.4069C20.9073 11.0459 20.8413 10.6239 20.5763 10.3309L11.5763 0.330904C11.1973 -0.0910957 10.4693 -0.0910957 10.0903 0.330904L1.09032 10.3309C0.826317 10.6239 0.759317 11.0459 0.919317 11.4069C1.08032 11.7679 1.43832 11.9999 1.83332 11.9999ZM7.78232 11.6839C7.81332 11.7789 8.59532 13.9999 10.8333 13.9999C13.1023 13.9999 13.8753 11.7129 13.8833 11.6889L15.7833 12.3099C15.7343 12.4609 14.5363 15.9999 10.8333 15.9999C7.13032 15.9999 5.93232 12.4609 5.88332 12.3109L7.78232 11.6839Z" fill="#6F4E37" style="fill:#6F4E37;fill:color(display-p3 0.4353 0.3059 0.2157);fill-opacity:1;"/>
</svg>
